<?xml version="1.0" encoding="UTF-8"?>
<svg xmlns="http://www.w3.org/2000/svg" width="24" height="24" viewBox="0 0 24 24" fill="none">
  <path d="M14.7665 22C14.463 22.0011 14.1654 21.9164 13.908 21.7557C13.6506 21.595 13.4439 21.3647 13.3118 21.0915L10.098 14.6228C9.94355 14.3116 9.69116 14.0596 9.37961 13.9057L2.90732 10.6937C2.61762 10.5496 2.37717 10.3229 2.21636 10.0422C2.05555 9.76147 1.98161 9.43938 2.00388 9.11665C2.02616 8.79393 2.14366 8.48505 2.34152 8.22909C2.53937 7.97312 2.8087 7.78156 3.11545 7.67863L19.8467 2.08479C20.1347 1.98821 20.444 1.97382 20.7397 2.04324C21.0354 2.11266 21.3059 2.26315 21.5209 2.47779C21.7358 2.69243 21.8866 2.96273 21.9563 3.25832C22.0261 3.55392 22.012 3.86311 21.9158 4.15116L16.3208 20.879C16.2211 21.1874 16.0306 21.4586 15.7742 21.657C15.5179 21.8554 15.2076 21.9718 14.884 21.991C14.8459 21.9989 14.8056 22 14.7665 22ZM20.3693 3.12189C20.3127 3.12214 20.2564 3.1312 20.2026 3.14874L3.47129 8.74258C3.37447 8.77484 3.28942 8.83514 3.22695 8.91583C3.16448 8.99652 3.12741 9.09395 3.12046 9.19575C3.1135 9.29755 3.13697 9.39912 3.18788 9.48756C3.2388 9.57599 3.31485 9.6473 3.40639 9.69242L9.87421 12.9022C10.4067 13.166 10.8388 13.596 11.1051 14.1272L14.3166 20.5959C14.3598 20.6892 14.4309 20.7668 14.5201 20.818C14.6093 20.8691 14.7122 20.8912 14.8146 20.8812C14.9156 20.8748 15.0124 20.838 15.0923 20.7758C15.1721 20.7135 15.2313 20.6286 15.2622 20.5322L20.8572 3.80322C20.8827 3.72607 20.8897 3.64399 20.8775 3.56364C20.8653 3.4833 20.8344 3.40695 20.7872 3.3408C20.74 3.27464 20.6779 3.22055 20.6058 3.1829C20.5338 3.14526 20.4539 3.12512 20.3727 3.12413L20.3693 3.12189Z" fill="#101729" stroke="#101729" stroke-width="0.6"></path>
</svg>
