<?xml version="1.0" encoding="UTF-8"?>
<svg xmlns="http://www.w3.org/2000/svg" width="24" height="24" viewBox="0 0 24 24" fill="none">
  <path d="M7.5 19C8.32843 19 9 19.6716 9 20.5C9 21.3284 8.32843 22 7.5 22C6.67157 22 6 21.3284 6 20.5C6 19.6716 6.67157 19 7.5 19Z" stroke="#101729" stroke-width="1.6"></path>
  <path d="M16.5 19C17.3284 19 18 19.6715 18 20.5C18 21.3284 17.3284 22 16.5 22C15.6716 22 15 21.3284 15 20.5C15 19.6715 15.6716 19 16.5 19Z" stroke="#101729" stroke-width="1.6"></path>
  <path d="M2 2L2.27496 2.10286C3.64505 2.61538 4.33011 2.87165 4.72194 3.48174C5.11377 4.09184 5.11377 4.90221 5.11377 6.52296V9.5712C5.11377 12.8658 5.18034 13.953 6.09234 14.9765C7.00434 16 8.47218 16 11.4079 16H12.5263M16.9899 16C18.6331 16 19.4546 16 20.0354 15.4964C20.6161 14.9929 20.782 14.1368 21.1137 12.4244L21.6398 9.70868C22.0052 7.76093 22.1878 6.78707 21.7205 6.14073C21.2533 5.4944 19.6566 5.4944 17.883 5.4944H11.4984M5.11377 5.4944H7.26316" stroke="#101729" stroke-width="1.6" stroke-linecap="round"></path>
</svg>
