<svg xmlns="http://www.w3.org/2000/svg" viewBox="0 0 28 24.16">
    <g>
        <g>
            <path
                d="M3.5 24.16v-5.49H1.75A1.76 1.76 0 0 1 0 16.92V1.75A1.76 1.76 0 0 1 1.75 0h24.5A1.76 1.76 0 0 1 28 1.75v15.17a1.76 1.76 0 0 1-1.75 1.75H9zm-1.75-23a.58.58 0 0 0-.58.58v15.18a.58.58 0 0 0 .58.58h2.92v3.84l3.84-3.84h17.74a.58.58 0 0 0 .58-.58V1.75a.58.58 0 0 0-.58-.58z"/>
            <circle cx="9.33" cy="9.33" r="1.17"/>
            <circle cx="18.67" cy="9.33" r="1.17"/>
            <circle cx="14" cy="9.33" r="1.17"/>
        </g>
    </g>
</svg>
