<svg xmlns="http://www.w3.org/2000/svg" viewBox="0 0 28 18.67">
    <g>
        <g>
            <path
                d="M25.67 18.67H2.33A2.34 2.34 0 0 1 0 16.33v-14A2.34 2.34 0 0 1 2.33 0h23.34A2.34 2.34 0 0 1 28 2.33v14a2.34 2.34 0 0 1-2.33 2.34zM2.33 1.17a1.16 1.16 0 0 0-1.16 1.16v14a1.16 1.16 0 0 0 1.16 1.17h23.34a1.16 1.16 0 0 0 1.16-1.17v-14a1.16 1.16 0 0 0-1.16-1.16z"/>
            <path
                d="M14 12.36L3.77 5.74a.58.58 0 1 1 .63-1L14 11l9.6-6.21a.58.58 0 1 1 .63 1zM3.5 15.17a.58.58 0 0 1-.32-1.07l5.25-3.5a.58.58 0 0 1 .81.16.59.59 0 0 1-.17.81l-5.25 3.5a.63.63 0 0 1-.32.1zM24.5 15.17a.63.63 0 0 1-.32-.1l-5.25-3.5a.59.59 0 0 1-.17-.81.58.58 0 0 1 .81-.16l5.25 3.5a.58.58 0 0 1-.32 1.07z"/>
        </g>
    </g>
</svg>
