<svg xmlns="http://www.w3.org/2000/svg" shape-rendering="geometricPrecision" viewBox="0 0 257.95 57.67">
    <path fill="#e2001a" fill-rule="evenodd" d="M257.94 48.48c-.2-1-.61-2.87-.85-4a.8.8 0 0 0-1-.58 6.77 6.77 0 0 1-2.27.43c-1.71 0-3-1-2.61-3 .47-2.3 6.54-25.85 6.54-25.85a.61.61 0 0 0-.55-.8h-11.66a.6.6 0 0 0-.56.45l-.56 2.13a.58.58 0 0 1-1 .23 11.45 11.45 0 0 0-2.54-2.11 9.26 9.26 0 0 0-1.56-.79 15.8 15.8 0 0 0-8.81-.55c-8.95 1.74-14.42 9.14-15.71 11.08-.8 1.31-3.83 4.21-5.5 4.06a2.56 2.56 0 0 1-1.16-.37c-1.25-1-.84-2.84-.37-4.34.56-2 4.67-7.87 5.8-9.51a.26.26 0 0 0-.22-.42h-7.3a3.9 3.9 0 0 0-1.61.33 46.56 46.56 0 0 0-10.22 6.39l-2.34 1.89a.11.11 0 0 1-.17-.12c.42-1.25 1.85-5.58 2.54-8.23a.21.21 0 0 0-.21-.27h-8.81a6.33 6.33 0 0 0-6.09 4.63c-.56 2.13-1 3.86-1.43 5.14a16.06 16.06 0 0 1-1 2.38 17.07 17.07 0 0 1-3.8 5c-2.58 2.25-8.74 7.13-9.56 7.73a30.43 30.43 0 0 1-4.78 3.1c-2.6 1.19-6.48 1.42-8.62.47a4.26 4.26 0 0 1-2.81-2.78.44.44 0 0 1 .26-.57 77 77 0 0 0 10.76-4.81c5.06-3.08 9-5.79 9.73-11.05.81-6.2-4.13-9.63-10.37-9.7-7.21-.09-14.36 4.08-19.12 10.58a35.34 35.34 0 0 0-6 14.66.77.77 0 0 1-.47.6c-1.14.45-6.52 2-7.28 2.1-.08 0-.13 0-.1-.07l.42-.63a13.14 13.14 0 0 0 2.29-9.14c-.39-3.52-2.52-6.25-3-9.77v-.79c.13-2.38 1.63-4.13 3.65-6a.58.58 0 0 0-.37-1h-13c-5.56 1.61-10.72 12.4-23.38 12.75a.34.34 0 0 1-.36-.35 39.36 39.36 0 0 0-.91-6.28c-1.15-4.65-4.48-7.91-10.1-6.69a9.71 9.71 0 0 0-3.71 1.54s-13.55 2.14-25.24 4.48c1.71-4.4 5.76-15.5 7.22-18.91a.8.8 0 0 0-.66-1.19H29.62c-1.34 0-2.43.12-3 .78l-7.55 8.02a.2.2 0 0 0 .15.34h20.4a.7.7 0 0 1 .58 1c-1.22 2.93-4.07 10.26-4.85 12.3a.18.18 0 0 1-.07.08c-3.37.68-6.69 1.46-9.86 2.37-9.12 2.51-22.76 7.87-25 17.78C-3.03 57.74 16.59 60.6 27.2 55.06s19.16-22.18 20.22-25.69c-1.14-.49-4.51-1.46-11.32.18a38.18 38.18 0 0 0-4 1.2c-1.49 3.31-5.14 10.36-5.63 11.31-1.68 3.22-5.43 6.82-9.84 6.73a7.41 7.41 0 0 1-5.4-2.44c-2.4-2.9-1.13-6.78-1-7.17a9.31 9.31 0 0 1 4-4.72c7.16-4.54 16.64-6.92 19.19-7.5 4.46-1 13.11-2.2 18.47-2.75l3.66-.34c-2 2.5-13.4 20.21 2.16 28.48 5 2.63 12.66 2 18.16-1.1 7.29-4.09 12.2-11.86 14.2-19.95a.19.19 0 0 1 .19-.15h.42a30 30 0 0 0 10.66-2.23c6-2.24 8.08-4.17 8.65-4.84a.11.11 0 0 1 .19.07c.07 2.86 2.35 9.49 2.43 10.27.31 2.85.13 4.24-1.22 6.35s-4.26 2.91-6.39 2.74c-.69-.06-3.59-.17-4.74-2.37-.66-1.29-.87-3.55-.06-4.57.11-.14.52-.6.4-1s-.38-.57-.49-.53c-2 .64-3.85 1.41-5.76 2.13a3.73 3.73 0 0 0-2.28 2.56 12.62 12.62 0 0 0-.31 2.36 10.5 10.5 0 0 0 5.71 10.16 14.58 14.58 0 0 0 8.5 1.81 19.51 19.51 0 0 0 6-1.62c3.32-1.28 17.5-6.72 20.42-7.47a.35.35 0 0 1 .43.29c.6 2.77 3.61 6.32 7.13 7.78 2.14.89 4 1.13 7.43.8s7.6-2.14 11.07-4.33c1.19-.75 3.73-2.8 6.16-4.84 0 0 7.9-6.54 8.37-7a.27.27 0 0 1 .45.27l-4.58 14.28a.67.67 0 0 0 .65.86h11.13a1.59 1.59 0 0 0 1.52-1.09c1-2.82 3.69-10.88 4.14-12.3l.09-.29c2.35-6 8-12.29 10.67-13.37a.36.36 0 0 1 .5.4 8.73 8.73 0 0 0 .46 5.22c1 2.27 3.9 4.28 8.07 4a10.33 10.33 0 0 0 3.13-.71c.72-.34.83.21.74 1-.08.52-.57 3.77-.58 4.14v.07a12.42 12.42 0 0 0 .7 4.91 13.32 13.32 0 0 0 6.69 7.41 14.38 14.38 0 0 0 6.9 1.07 27.61 27.61 0 0 0 4.83-.89 27 27 0 0 0 8.37-4.35c.14-.11.57-.59.92-.46s.33.44.36.57c.38 1.44 2.48 3.41 4.33 4.32a7.2 7.2 0 0 0 1.29.5 9.9 9.9 0 0 0 2.55.34c5.26.17 8.73-2.78 11.26-4.23a.78.78 0 0 0 .4-.85M83.07 30.24a18.84 18.84 0 0 1-5.74 9.44c-4.17 3.79-10.9 5.13-13.77 1.08-2.6-3.7-1.13-10.07 2.51-13.83a14.09 14.09 0 0 1 8.56-4.31.43.43 0 0 1 .41.24c1.36 2.6 4.52 5.29 7.87 7a.38.38 0 0 1 .21.42m.51-4.71c-1.19-.74-4.42-2.94-4.09-4.77a1.65 1.65 0 0 1 2.45-1.36c1 .46 1.29 1.69 1.67 3.24a13.84 13.84 0 0 1 .39 2.64.28.28 0 0 1-.42.25m62.44 8.71c0-1.87.35-7.35 4.17-10.69.8-.7 3-2.64 5.67-2.3a4 4 0 0 1 2.82 1.48 3.75 3.75 0 0 1 .38 2.54c-.59 3.68-10.76 8.3-12.75 9.16a.21.21 0 0 1-.29-.19m95.75-9.33a11.6 11.6 0 0 1-.61 2.71l-2.73 9.46a9.52 9.52 0 0 1-8.86 7.45 6.31 6.31 0 0 1-7-6c0-7.38 3.9-11.41 5.48-13.39 2.33-2.91 6.46-5.47 9-5.36 3.42.15 4.8 2 4.65 5.13"/>
</svg>
