<svg xmlns="http://www.w3.org/2000/svg" viewBox="0 0 28 29.75">
    <g>
        <g>
            <path
                d="M19.83 21.58a.58.58 0 0 0-1.16 0c0 1.11-1.92 2.34-4.67 2.34s-4.67-1.23-4.67-2.34a.58.58 0 0 0-1.16 0c0 2 2.56 3.5 5.83 3.5s5.83-1.53 5.83-3.5zM18.08 13.42a.59.59 0 0 1 .59-.59.58.58 0 0 1 .58.59.59.59 0 0 0 1.17 0 1.75 1.75 0 0 0-3.5 0 .58.58 0 1 0 1.16 0zM8.75 13.42a.58.58 0 0 1 .58-.59.59.59 0 0 1 .59.59.58.58 0 1 0 1.16 0 1.75 1.75 0 0 0-3.5 0 .59.59 0 0 0 1.17 0z"/>
            <path
                d="M25.93 8.08a7.82 7.82 0 0 0-1.38-.39 11.08 11.08 0 0 0-21.1 0 8.07 8.07 0 0 0-1.38.39A3.43 3.43 0 0 0 0 11.28v6.6a3.41 3.41 0 0 0 2.07 3.2 6.8 6.8 0 0 0 2.6.5V8.17a11.54 11.54 0 0 0 1.65.11 9.22 9.22 0 0 0 5.91-1.85 5.82 5.82 0 0 0 .77-.76c2.39 1.54 5.86 2.39 10.36 2.5v-.39 13.64A10 10 0 0 1 15 28a1.15 1.15 0 0 0-.95-.53 1.17 1.17 0 1 0 0 2.33 1.14 1.14 0 0 0 1-.64 11.14 11.14 0 0 0 9.53-7.64 6.42 6.42 0 0 0 1.38-.39A3.41 3.41 0 0 0 28 17.88v-6.6a3.43 3.43 0 0 0-2.07-3.2zM3.5 20.3a5.65 5.65 0 0 1-1-.3 2.26 2.26 0 0 1-1.34-2.12v-6.6a2.25 2.25 0 0 1 1.35-2.11 5.65 5.65 0 0 1 1-.3zm8-14.76C9.26 7.42 5.78 7.13 5 7a9.93 9.93 0 0 1 8.42-5.84 5.94 5.94 0 0 1-1.94 4.38zm2.15-.82a8.13 8.13 0 0 0 .93-3.51A9.81 9.81 0 0 1 23 7c-4-.15-7.24-.93-9.37-2.28zm13.2 13.16A2.26 2.26 0 0 1 25.49 20a5.65 5.65 0 0 1-1 .3V8.87a5.65 5.65 0 0 1 1 .3 2.25 2.25 0 0 1 1.34 2.11z"/>
        </g>
    </g>
</svg>
